# xmcd
#
# Track frame offsets: 
#        150
#        36048
#        61388
#        85075
#        108868
#        135940
#        163225
#        185180
#        202285
#        207809
#        234432
#        256102
#        277663
#        302381
#        318206
#
# Disc length: 4690 seconds
#
# Revision: 0
# Processed by: cddbd v1.5.2PL0 Copyright (c) Steve Scherf et al.
# Submitted via: ExactAudioCopy v0.99pb4
#
DISCID=c312500f
DTITLE=Vienna Teng - Bremen March 2009 2
DYEAR=1900
DGENRE=
TTITLE0=St Stephen's Cross
TTITLE1=Stray Italian Greyhound
TTITLE2=White Light
TTITLE3=Grandmother Song
TTITLE4=City Hall
TTITLE5=Harbor
TTITLE6=Idioteque (Radiohead)
TTITLE7=Keep the Customer Satisfied (Simon and Garfunkel)
TTITLE8=Mountain Stage Intro
TTITLE9=Gravity
TTITLE10=In Another Life
TTITLE11=Brooklyn Blues
TTITLE12=Harbor
TTITLE13=Grandmother Song
TTITLE14=Everything's Broken Jam
EXTD=
EXTT0=
EXTT1=
EXTT2=
EXTT3=
EXTT4=
EXTT5=
EXTT6=
EXTT7=
EXTT8=
EXTT9=
EXTT10=
EXTT11=
EXTT12=
EXTT13=
EXTT14=
PLAYORDER=
